<?xml version="1.0" encoding="UTF-8"?>
<svg xmlns="http://www.w3.org/2000/svg" xmlns:rdf="http://www.w3.org/1999/02/22-rdf-syntax-ns#" xmlns:svg="http://www.w3.org/2000/svg" xmlns:xlink="http://www.w3.org/1999/xlink" namespace="http://www.w3.org/XML/1998/namespace" version="1.1" width="259" height="195" viewBox="0 0 259 195">
  <path d="M0.500000 194.000000 c0.406812 -0.658236 44.343718 -1.000000 128.559017 -1.000000 l127.940983 0.000000 0.000000 -95.440983 c0.000000 -62.548633 0.344635 -95.653979 1.000000 -96.059017 0.664043 -0.410401 1.000000 31.989616 1.000000 96.440983 l0.000000 97.059017 -129.559017 0.000000 c-86.118034 0.000000 -129.351791 -0.335299 -128.940983 -1.000000 z M87.000000 145.071887 c-11.885077 -1.741965 -21.017166 -5.481668 -28.790237 -11.789957 -2.359630 -1.914974 -6.871133 -4.771460 -10.025561 -6.347746 -3.154428 -1.576286 -9.211321 -6.068892 -13.459763 -9.983568 -9.267799 -8.539703 -9.662685 -10.334994 -3.873612 -17.610818 4.561592 -5.733100 18.401483 -19.112227 26.149172 -25.278601 8.845859 -7.040405 23.883716 -13.546047 38.123411 -16.492859 1.701504 -0.352115 3.062615 -1.603231 3.873227 -3.560220 3.558191 -8.590233 16.685751 -14.154458 28.229377 -11.965255 5.845451 1.108567 24.505906 9.870072 26.953994 12.655508 2.824233 3.213415 3.045476 6.003457 0.866648 10.929061 -1.139002 2.574904 -1.910648 4.841909 -1.714768 5.037789 1.454726 1.454726 19.451100 6.550848 24.793789 7.020980 11.072007 0.974284 12.790679 0.259889 23.431075 -9.739533 14.205881 -13.350123 22.520114 -16.635975 30.218174 -11.942469 6.216139 3.789979 6.545375 9.812886 1.164926 21.310642 l-3.078790 6.579223 3.569469 10.337572 c3.883303 11.246469 4.300707 15.082505 2.190649 20.132584 -2.117786 5.068576 -6.048365 7.635782 -11.690939 7.635782 -6.860419 0.000000 -8.949999 -1.072774 -17.461149 -8.964418 -7.012190 -6.501790 -7.922223 -7.035582 -11.994562 -7.035582 -4.269878 0.000000 -11.474530 2.590764 -11.474530 4.126195 0.000000 0.415674 0.450000 1.033886 1.000000 1.373805 0.550000 0.339919 1.000000 2.628318 1.000000 5.085333 0.000000 3.949800 -0.512427 4.979726 -4.423514 8.890813 -3.254344 3.254344 -5.963502 4.872312 -10.250000 6.121524 -5.391541 1.571254 -6.161532 1.577855 -10.314738 0.088422 -4.946246 -1.773834 -6.786401 -1.002064 -5.104388 2.140807 0.600952 1.122890 1.092641 2.448970 1.092641 2.946844 0.000000 1.886394 -5.847849 3.512222 -15.500000 4.309336 -5.500000 0.454212 -12.925000 1.531207 -16.500000 2.393322 -7.593780 1.831248 -29.072298 2.757428 -37.000000 1.595485 z m36.333717 -4.686832 c2.815901 -0.646128 2.801505 -0.667832 -2.289648 -3.451947 -6.480554 -3.543915 -7.958076 -3.861915 -11.044069 -2.376962 -1.375000 0.661638 -4.004143 1.527076 -5.842540 1.923196 -2.854128 0.614980 -3.292488 0.464467 -3.000000 -1.030068 0.194325 -0.992946 2.054106 -2.342354 4.298133 -3.118611 4.849260 -1.677463 8.066817 -4.581568 10.891725 -9.830664 1.793397 -3.332396 2.152682 -5.669010 2.152682 -14.000000 0.000000 -8.923096 -0.312156 -10.675964 -2.898644 -16.276919 -1.594254 -3.452306 -4.406754 -7.601057 -6.250000 -9.219449 -5.069291 -4.450896 -4.814566 -5.005787 4.330263 -9.433028 9.098209 -4.404671 1.713291 -8.333660 -11.475688 -6.105396 -3.451333 0.583099 -4.205931 0.429984 -4.205931 -0.853421 0.000000 -0.860204 1.687500 -2.454870 3.750000 -3.543702 l3.750000 -1.979694 -5.520099 -0.044196 c-11.140863 -0.089198 -29.474979 7.058054 -41.021949 15.991728 -7.421913 5.742195 -25.767621 23.838563 -27.517655 27.143657 -1.384748 2.615220 -1.280974 2.804306 4.320438 7.872267 15.696261 14.201427 28.014490 18.043787 38.108988 11.887133 l3.369723 -2.055201 -2.153034 -2.291800 c-1.883071 -2.004437 -1.965794 -2.447196 -0.659736 -3.531127 1.236199 -1.025954 2.546344 -0.429027 7.609672 3.467115 6.554094 5.043259 7.886262 6.949422 6.103028 8.732656 -0.834920 0.834920 -1.853288 0.429586 -3.937501 -1.567217 -3.385458 -3.243475 -3.597763 -3.259761 -7.380563 -0.566169 -1.643087 1.169981 -5.537554 2.884632 -8.654370 3.810336 l-5.666940 1.683098 4.500000 2.610437 c5.100556 2.958817 12.340827 5.465786 19.575003 6.777912 5.185623 0.940562 31.917911 0.486791 36.758714 -0.623966 z m26.440943 -4.224626 c0.913128 -0.579504 -0.375854 -2.383269 -4.544593 -6.359573 -6.911598 -6.592548 -12.662938 -9.732992 -19.048459 -10.401163 l-4.681608 -0.489876 -2.209735 4.760843 c-2.085471 4.493119 -2.114218 4.866388 -0.511189 6.637715 2.356761 2.604191 4.906911 3.863067 10.720924 5.292357 5.736240 1.410171 18.384387 1.759332 20.274660 0.559697 z m11.361883 -14.266026 c16.349637 -12.407162 20.677507 -17.894445 14.113456 -17.894374 -1.944231 0.000021 -3.568260 1.025545 -5.542632 3.500000 -2.721000 3.410195 -5.707368 4.647488 -5.707368 2.364641 0.000000 -0.624431 1.125000 -2.177944 2.500000 -3.452251 2.914794 -2.701340 3.073008 -3.696554 0.928571 -5.840991 -2.313953 -2.313953 -4.428571 -1.944571 -4.428571 0.773584 0.000000 1.289757 -0.885719 3.146577 -1.968264 4.126266 -1.772284 1.603895 -1.822069 1.989976 -0.500000 3.877494 1.776385 2.536145 1.934665 6.651227 0.255828 6.651227 -0.666839 0.000000 -2.136653 -1.159079 -3.266252 -2.575732 l-2.053817 -2.575732 -5.846069 5.662239 -5.846069 5.662239 3.308488 3.413493 c1.819668 1.877421 3.619157 3.413493 3.998865 3.413493 0.379707 0.000000 4.903932 -3.197518 10.053833 -7.105596 z m10.631928 5.557868 c7.021903 -2.933938 11.247441 -8.685506 9.196488 -12.517747 -1.441840 -2.694102 -2.463597 -2.462099 -7.796662 1.770331 -2.567563 2.037671 -6.646156 5.271355 -9.063540 7.185966 -3.863171 3.059699 -4.165812 3.571145 -2.500000 4.224859 3.050990 1.197298 6.202786 0.991574 10.163715 -0.663408 z m-29.768471 -8.777958 c0.000000 -0.729127 -1.101128 -2.360142 -2.446951 -3.624477 -2.212216 -2.078269 -2.595935 -2.149808 -4.000000 -0.745743 -2.084601 2.084601 -1.995359 2.392074 1.196951 4.123931 3.448847 1.871030 5.250000 1.955526 5.250000 0.246289 z m88.750000 -3.196317 c3.197462 -3.679958 2.954553 -9.612902 -0.750000 -18.318475 -1.713897 -4.027599 -3.000000 -8.823518 -3.000000 -11.187096 0.000000 -2.411282 1.251511 -6.988654 3.000000 -10.972426 3.644089 -8.302724 3.757731 -11.333179 0.545455 -14.545455 -4.797661 -4.797661 -12.570337 -2.850069 -22.396142 5.611782 -5.387770 4.639874 -6.174792 5.933673 -3.609475 5.933673 0.846911 0.000000 3.284014 0.889812 5.415785 1.977361 10.733542 5.475844 12.702478 19.041744 4.079345 28.106540 -2.048913 2.153854 -4.469972 3.916099 -5.380132 3.916099 -0.910160 0.000000 -1.654836 0.356306 -1.654836 0.791792 0.000000 1.288099 8.249611 8.959897 11.500000 10.694526 4.052605 2.162746 9.385485 1.288449 12.250000 -2.008321 z m-98.835903 -3.044227 c1.727135 -1.628565 0.292301 -3.758557 -4.041605 -5.999706 -4.319976 -2.233946 -4.872493 -1.824448 -4.872493 3.611250 l0.000000 5.045313 3.750000 -0.661732 c2.062500 -0.363953 4.386344 -1.261759 5.164097 -1.995125 z m17.085903 0.566230 c2.407719 -2.407719 2.535325 -4.321818 0.428571 -6.428571 -2.092914 -2.092914 -2.528329 -1.967083 -5.292345 1.529441 -2.270699 2.872471 -2.294128 3.067169 -0.595012 4.944671 2.218565 2.451486 2.968012 2.445234 5.458786 -0.045541 z m-8.200000 -6.200000 c2.101887 -2.101887 1.299140 -4.768950 -2.050000 -6.810960 -3.932136 -2.397470 -3.673053 -2.402556 -6.719045 0.131894 -2.312107 1.923814 -2.353392 2.119117 -0.649519 3.072653 1.000739 0.560042 2.549318 1.870593 3.441286 2.912336 1.853866 2.165158 4.230254 2.441103 5.977278 0.694078 z m17.000000 -3.000000 c1.801862 -1.801862 1.445703 -4.598136 -0.734259 -5.764816 -2.907172 -1.555871 -4.441498 -1.264403 -5.935261 1.127492 -1.206481 1.931883 -1.098756 2.356375 1.009453 3.977764 2.784947 2.141858 4.032405 2.287222 5.660066 0.659560 z m35.200000 -2.948016 c0.000000 -1.448459 -3.027248 -2.224736 -4.180085 -1.071899 -0.575108 0.575108 -0.769412 1.492614 -0.431787 2.038903 0.725561 1.173982 4.611872 0.359112 4.611872 -0.967004 z m14.267617 0.063383 c-0.540444 -2.066662 -2.868119 -3.648198 -3.880033 -2.636284 -0.791710 0.791710 1.921034 4.720917 3.259343 4.720917 0.689281 0.000000 0.942998 -0.852126 0.620690 -2.084633 z m-23.201875 -0.950550 c2.598269 -1.390551 2.450529 -4.428821 -0.274483 -5.644756 -1.907886 -0.851323 -2.426865 -0.565662 -3.810101 2.097186 -0.880748 1.695515 -1.435256 3.420254 -1.232241 3.832754 0.523715 1.064122 3.048686 0.928687 5.316825 -0.285184 z m-54.935213 -1.869428 c2.250568 -1.822399 2.276744 -1.987875 0.606426 -3.833556 -1.466501 -1.620465 -8.654828 -4.677291 -9.354241 -3.977878 -0.120446 0.120446 0.269985 2.355830 0.867624 4.967519 0.895419 3.912990 1.477372 4.748527 3.307356 4.748527 1.221406 0.000000 3.279182 -0.857075 4.572835 -1.904612 z m18.667729 -2.482851 c-0.164041 -1.134361 -1.411038 -2.615230 -2.771103 -3.290820 -2.060422 -1.023482 -2.771368 -0.958187 -4.262752 0.391496 -1.703476 1.541624 -1.632355 1.751966 1.472846 4.356023 3.585466 3.006812 6.110821 2.345298 5.561009 -1.456699 z m66.201743 0.420006 c0.000000 -0.947412 -0.835478 -2.478665 -1.856618 -3.402784 -1.581765 -1.431478 -2.029223 -1.472239 -3.022562 -0.275339 -1.646597 1.984028 1.726120 8.017497 3.608499 6.455261 0.698874 -0.580014 1.270680 -1.829726 1.270680 -2.777139 z m-38.447026 0.908921 c1.428108 -1.578042 1.613907 -2.453349 0.796001 -3.750000 -1.415621 -2.244226 -6.328410 -2.180418 -7.739989 0.100527 -0.907562 1.466513 -0.654912 2.143585 1.391014 3.727764 3.132960 2.425879 3.288718 2.423683 5.552974 -0.078292 z m25.090286 -1.454199 c0.551240 -1.436509 -1.165538 -4.487265 -2.525158 -4.487265 -1.124736 0.000000 -3.206791 4.047481 -2.592962 5.040677 0.930335 1.505314 4.475199 1.122015 5.118121 -0.553412 z m-35.957712 -2.661579 c3.173914 -2.981738 3.060819 -6.600255 -0.232119 -7.426730 -1.400614 -0.351532 -2.669312 -0.472605 -2.819331 -0.269052 -0.150018 0.203553 -1.280098 2.127447 -2.511289 4.275321 -1.770691 3.089058 -1.965195 4.078576 -0.930669 4.734687 2.153724 1.365923 4.048790 0.982374 6.493408 -1.314225 z m29.314451 -1.279082 c0.000000 -3.196795 -3.515736 -4.630868 -5.786346 -2.360257 -1.886079 1.886079 1.438851 5.069995 3.912213 3.746292 1.030773 -0.551653 1.874133 -1.175369 1.874133 -1.386034 z m-56.904878 -0.161219 c1.148128 -1.383410 1.012248 -1.880023 -0.948912 -3.468073 -2.849219 -2.307158 -8.918710 -3.544811 -10.352503 -2.111019 -0.742533 0.742533 -0.051070 1.477335 2.324696 2.470400 1.859878 0.777425 3.999196 2.158207 4.754040 3.068404 1.716990 2.070359 2.531420 2.078130 4.222678 0.040288 z m17.857077 -1.834503 c2.688184 -2.861441 2.202326 -5.067722 -1.486076 -6.748270 -2.338177 -1.065345 -2.821838 -0.894350 -4.974345 1.758652 -2.202121 2.714151 -2.254705 3.031150 -0.688059 4.147968 0.932954 0.665077 2.146280 1.655077 2.696280 2.200000 1.479088 1.465436 1.928084 1.328449 4.452200 -1.358349 z m51.047800 -0.550881 c0.000000 -1.100000 -0.188196 -2.000000 -0.418213 -2.000000 -0.230017 0.000000 -1.130017 -0.273145 -2.000000 -0.606989 -1.891055 -0.725666 -2.155408 1.633368 -0.381787 3.406989 1.762995 1.762995 2.800000 1.466708 2.800000 -0.800000 z m-21.065160 -1.577878 c1.232390 -1.170884 0.950197 -1.570364 -2.000000 -2.831252 -3.231648 -1.381179 -3.533015 -1.341164 -5.094428 0.676423 -1.546117 1.997822 -1.546117 2.230149 0.000000 3.397943 1.835983 1.386731 4.889618 0.851661 7.094428 -1.243113 z m30.428990 0.083621 c-0.315370 -0.821841 -0.983587 -1.240747 -1.484927 -0.930902 -1.048586 0.648061 -0.206825 2.425158 1.148729 2.425158 0.500279 0.000000 0.651568 -0.672415 0.336198 -1.494256 z m-93.910883 -2.666259 c1.400879 -0.638283 2.547053 -1.561245 2.547053 -2.051027 0.000000 -1.052492 -5.103269 -3.262212 -9.901019 -4.287151 l-3.401019 -0.726556 3.401019 4.094599 c3.803323 4.578945 3.813760 4.583161 7.353966 2.970135 z m24.547053 -4.005522 c0.000000 -1.271047 -1.214254 -2.443365 -3.535224 -3.413128 -3.417324 -1.427849 -3.627572 -1.386098 -6.304274 1.251906 l-2.769050 2.729017 4.054274 2.072595 c3.570547 1.825308 4.322728 1.906931 6.304274 0.684110 1.237500 -0.763667 2.250000 -2.259692 2.250000 -3.324502 z m28.273629 1.095018 c-1.112823 -1.033201 -7.273629 -2.218487 -7.273629 -1.399384 0.000000 0.378680 1.008320 1.736150 2.240712 3.016602 2.076238 2.157205 2.371583 2.209657 4.023629 0.714576 0.980604 -0.887435 1.434784 -1.936742 1.009288 -2.331793 z m24.726371 3.271018 c0.000000 -1.860737 -2.664576 -3.200000 -6.366667 -3.200000 -4.393057 0.000000 -4.179875 0.831970 0.665152 2.595842 3.993768 1.453964 5.701514 1.634925 5.701514 0.604158 z m12.500000 -3.200000 c0.000000 -3.221042 -1.920154 -3.568040 -3.276111 -0.592037 -0.847529 1.860122 -0.828590 2.577451 0.077686 2.942562 2.107002 0.848846 3.198425 0.046758 3.198425 -2.350525 z m-6.536355 -1.456195 c0.664694 -0.800907 0.939634 -1.891286 0.610977 -2.423063 -0.922962 -1.493384 -6.303054 -2.372099 -8.160208 -1.332783 -1.398039 0.782382 -1.165890 1.103028 1.461804 2.019046 1.718080 0.598926 3.123782 1.562365 3.123782 2.140976 0.000000 1.508338 1.552069 1.296670 2.963645 -0.404176 z m-42.466274 -0.539551 c0.864980 -1.399568 -3.991839 -3.413654 -6.183601 -2.564293 -1.727847 0.669583 -1.721814 0.770555 0.127360 2.131460 2.252706 1.657885 5.170249 1.866399 6.056242 0.432833 z m-30.068800 -2.575682 c0.864286 -0.864286 1.571429 -1.919541 1.571429 -2.345012 0.000000 -1.667444 -3.933037 -4.198434 -7.397908 -4.760705 -2.999523 -0.486756 -4.041572 -0.168896 -5.877209 1.792744 l-2.231245 2.384402 4.003181 2.114266 c4.951924 2.615341 7.889837 2.856221 9.931752 0.814305 z m19.571429 -1.811940 c0.000000 -0.760853 -0.787500 -1.609799 -1.750000 -1.886546 -0.962500 -0.276748 -2.537500 -0.827377 -3.500000 -1.223620 -2.771499 -1.140974 -2.029832 0.822496 1.001787 2.652109 3.476533 2.098122 4.248213 2.181328 4.248213 0.458057 z m-11.517724 -4.248204 c1.228547 -0.471438 0.587724 -1.105310 -2.527416 -2.500000 -5.411397 -2.422755 -5.764046 -2.357960 -2.863266 0.526086 2.729028 2.713285 3.105076 2.850984 5.390683 1.973914 z m12.517724 -9.368428 c0.000000 -3.354359 -4.275808 -6.669219 -14.874151 -11.531324 -9.023614 -4.139681 -11.236723 -4.761880 -17.000000 -4.779418 -7.539809 -0.022944 -12.894614 1.879173 -16.626598 5.906051 -3.882196 4.188959 -3.248694 5.046682 4.250749 5.755252 8.069222 0.762404 21.921909 4.429450 32.250000 8.537132 l7.500000 2.982896 2.250000 -2.491058 c1.237500 -1.370082 2.250000 -3.340871 2.250000 -4.379531 z m-31.533081 1.449017 c-1.631805 -0.643789 -4.541919 -1.433103 -6.466919 -1.754030 -3.119652 -0.520094 -3.228323 -0.469637 -1.000000 0.464311 1.375000 0.576298 3.595786 1.630131 4.935080 2.341852 1.339294 0.711720 3.124407 1.029517 3.966919 0.706215 1.120445 -0.429955 0.735036 -0.902181 -1.435080 -1.758348 z M62.000000 109.559017 c0.000000 -0.792541 0.422931 -1.702369 0.939848 -2.021841 0.550530 -0.340246 0.274583 -2.125192 -0.666160 -4.309017 -0.984436 -2.285254 -1.638456 -6.757478 -1.689848 -11.555275 -0.081612 -7.619134 0.002938 -7.904783 3.181936 -10.750000 2.205542 -1.973969 4.315768 -2.915754 6.500000 -2.900922 4.068418 0.027627 10.557346 2.977906 13.435377 6.108576 2.650889 2.883589 5.893042 10.022647 6.806276 14.987077 0.578800 3.146413 1.183305 3.772759 4.641041 4.808722 2.879966 0.862859 3.880974 1.657193 3.632336 2.882385 -0.382650 1.885558 -2.045639 1.920048 -8.780807 0.182110 -5.448763 -1.405995 -12.600189 -0.708766 -20.457338 1.994490 -6.978440 2.400936 -7.542662 2.443850 -7.542662 0.573695 z m9.317198 -5.127243 c1.162731 -0.446182 1.366916 -1.823861 0.950667 -6.414334 -0.485836 -5.357882 -0.306660 -6.069554 2.145484 -8.521698 1.499279 -1.499279 3.315508 -2.430031 4.131121 -2.117051 3.016070 1.157375 1.300293 -1.097657 -2.430624 -3.194550 -5.463299 -3.070546 -9.883819 -2.919356 -11.138596 0.380959 -1.408074 3.703515 -1.200881 9.312113 0.563491 15.253399 1.494965 5.034093 2.529496 5.860019 5.778458 4.613275 z " fill="#000000" stroke-width="0.352778"/>
</svg>
