<?xml version="1.0" encoding="UTF-8"?>
<svg xmlns="http://www.w3.org/2000/svg" xmlns:rdf="http://www.w3.org/1999/02/22-rdf-syntax-ns#" xmlns:svg="http://www.w3.org/2000/svg" xmlns:xlink="http://www.w3.org/1999/xlink" namespace="http://www.w3.org/XML/1998/namespace" version="1.1" width="293" height="172" viewBox="0 0 293 172">
  <path d="M209.352744 167.208084 c-1.730991 -0.939446 -6.545623 -4.507567 -10.699183 -7.929157 -5.771260 -4.754207 -8.620446 -8.055263 -12.083586 -14.000000 -2.492412 -4.278410 -4.703673 -8.228928 -4.913912 -8.778928 -0.210240 -0.550000 -0.660825 -0.745536 -1.001301 -0.434525 -0.340476 0.311011 0.885361 3.704648 2.724082 7.541414 2.635331 5.499013 5.119226 8.628354 11.732142 14.780767 6.009570 5.591082 7.440831 7.331159 5.046083 6.134850 -1.838612 -0.918488 -3.583269 -1.429640 -3.877016 -1.135893 -0.976402 0.976402 -7.251050 -2.246707 -12.837863 -6.594445 -4.140296 -3.222039 -6.254242 -5.851092 -8.478798 -10.544836 -1.629866 -3.438968 -2.963393 -6.701468 -2.963393 -7.250000 0.000000 -0.548532 -0.480324 -0.997332 -1.067388 -0.997332 -0.587063 0.000000 -0.840755 0.787500 -0.563759 1.750000 0.276996 0.962500 1.063422 3.695453 1.747615 6.073229 0.945329 3.285304 2.910511 5.866175 8.185493 10.750000 3.817828 3.534724 6.730863 6.426771 6.473410 6.426771 -1.634496 0.000000 -7.397478 -3.753805 -11.695271 -7.617891 -4.297086 -3.863450 -5.347981 -5.565974 -7.130834 -11.552464 -1.150057 -3.861677 -1.946620 -7.151039 -1.770140 -7.309692 0.176480 -0.158654 10.179312 -2.609608 22.228515 -5.446566 14.680625 -3.456520 22.239242 -4.826504 22.912839 -4.152906 1.178732 1.178732 -2.365778 2.743315 -8.401353 3.708442 -2.179900 0.348580 -4.193774 1.006448 -4.475277 1.461930 -1.116301 1.806212 7.280312 9.326633 14.027938 12.564114 7.834918 3.759159 6.608254 4.446430 -2.184276 1.223798 -4.224762 -1.548457 -7.215055 -3.608687 -11.074293 -7.629886 -2.907729 -3.029758 -5.504898 -5.290534 -5.771485 -5.023946 -0.266587 0.266587 0.987464 2.687536 2.786781 5.379886 2.174687 3.254023 5.953565 6.704873 11.271485 10.293054 5.691068 3.839957 7.134151 5.187572 5.000000 4.669222 -5.374025 -1.305260 -14.629332 -7.690732 -17.875289 -12.332616 -5.418483 -7.748707 -5.774573 -8.120015 -4.573257 -4.768709 2.447392 6.827480 5.592609 10.715829 13.123091 16.223731 4.304000 3.148007 7.825455 5.832282 7.825455 5.965055 0.000000 0.943767 -7.376660 -2.682664 -12.650153 -6.218927 -5.931918 -3.977785 -6.228801 -4.074375 -4.330924 -1.409053 1.120652 1.573811 6.090135 6.261663 11.043295 10.417449 9.099683 7.634790 10.022985 8.875191 4.290526 5.764060 z m-19.953273 -10.616735 c-5.591145 -5.102932 -7.592544 -7.751593 -9.823147 -13.000000 -1.540749 -3.625242 -3.231052 -6.591350 -3.756230 -6.591350 -1.195684 0.000000 -0.237202 3.167938 2.723016 9.000000 2.189701 4.314032 6.124719 8.556395 13.283616 14.321136 6.076193 4.892888 4.695083 2.770635 -2.427254 -3.729786 z M143.500000 163.553407 c-0.550000 -0.217855 -3.135326 -0.683741 -5.745168 -1.035302 -3.569789 -0.480871 -6.477205 -1.924630 -11.737638 -5.828654 -3.983188 -2.956118 -6.997790 -5.942582 -7.004832 -6.939452 -0.006799 -0.962500 -0.654701 -1.750000 -1.439782 -1.750000 -0.785081 0.000000 -2.332791 -1.150993 -3.439356 -2.557763 -1.106565 -1.406770 -2.601726 -2.478452 -3.322580 -2.381517 -4.070936 0.547429 -7.907876 -0.348373 -10.912760 -2.547778 -1.868836 -1.367882 -4.635383 -2.986903 -6.147883 -3.597825 -1.512500 -0.610922 -2.750000 -1.574260 -2.750000 -2.140750 0.000000 -0.649435 -1.548707 -0.782335 -4.191701 -0.359703 -3.072056 0.491242 -5.500479 1.894488 -9.091475 5.253445 l-4.899774 4.583165 -7.414235 -0.475817 c-4.605973 -0.295593 -8.074914 -1.051717 -9.158525 -1.996280 -0.959359 -0.836255 -4.444290 -1.752619 -7.744290 -2.036365 -6.061378 -0.521178 -22.500000 -6.171469 -22.500000 -7.733710 0.000000 -0.465040 -0.273145 -1.557331 -0.606989 -2.427314 -0.418548 -1.090720 -0.030485 -1.585354 1.250000 -1.593275 2.170449 -0.013427 -18.393443 -9.906996 -20.693011 -9.955690 -3.967368 -0.084010 -5.449459 -6.159968 -1.958336 -8.028361 1.418192 -0.758993 3.863623 -0.739919 8.492961 0.066246 4.972068 0.865848 7.697545 0.845176 11.586975 -0.087883 4.499176 -1.079336 5.022297 -1.472567 4.536086 -3.409784 -2.130610 -8.489026 -5.421859 -11.733095 -15.309499 -15.090036 -5.637721 -1.914056 -7.298189 -3.144058 -7.298189 -5.406182 -0.000000 -1.825566 7.714154 -6.076821 11.026751 -6.076821 1.287717 0.000000 1.973249 -0.675453 1.973249 -1.944236 -0.000000 -3.091725 3.890239 -6.541709 12.500000 -11.085387 4.400000 -2.322037 11.859532 -6.404497 16.576738 -9.072133 18.054010 -10.209757 25.267983 -12.216277 49.673262 -13.816293 0.862138 -0.056522 1.250000 -2.080520 1.250000 -6.522933 0.000000 -3.542541 0.350226 -6.657435 0.778281 -6.921987 0.428054 -0.264552 0.602476 2.746390 0.387605 6.690983 -0.214872 3.944593 -0.138195 6.932583 0.170394 6.639979 0.308589 -0.292604 0.674298 -4.078721 0.812688 -8.413592 0.237201 -7.429993 0.466709 -8.153694 4.005581 -12.630704 3.650341 -4.618029 5.845451 -6.662107 5.845451 -5.443263 0.000000 1.097744 -6.668411 10.517823 -7.123408 10.062826 -0.547921 -0.547921 -0.791570 1.031105 -1.497784 9.706741 -0.703969 8.648061 1.157942 9.083144 2.139719 0.500000 0.393196 -3.437500 1.348936 -7.487500 2.123867 -9.000000 1.944097 -3.794464 2.550432 -3.459152 0.904133 0.500000 -1.471847 3.539617 -3.223445 15.650420 -2.112721 14.607660 0.376313 -0.353287 0.905639 -2.828287 1.176279 -5.500000 0.270640 -2.671713 1.010310 -6.432660 1.643710 -8.357660 0.633400 -1.925000 1.050397 -4.020218 0.926660 -4.656040 -0.123737 -0.635822 2.084441 -3.560822 4.907062 -6.500000 3.441855 -3.583982 4.534158 -4.355941 3.316644 -2.343960 -0.998467 1.650000 -3.291692 5.438271 -5.096054 8.418379 -3.163437 5.224774 -3.771645 7.220663 -4.672011 15.331621 -0.287314 2.588278 -0.021724 3.750000 0.857317 3.750000 0.834234 0.000000 1.522882 -2.327853 1.996228 -6.747891 0.771668 -7.205731 2.566896 -11.468502 8.545957 -20.292395 3.494079 -5.156557 7.813786 -9.805125 6.877020 -7.400569 -1.157908 2.972199 -8.351138 14.287871 -8.876297 13.963305 -0.334264 -0.206587 -0.679396 0.378849 -0.766959 1.300969 -0.087563 0.922120 -0.842452 4.826581 -1.677530 8.676581 -0.835079 3.850000 -1.534865 7.787500 -1.555080 8.750000 -0.053887 2.565677 2.845587 2.137635 3.386903 -0.500000 3.003925 -14.637043 4.918409 -20.274659 6.543931 -19.270031 0.563962 0.348548 0.775092 0.013044 0.478377 -0.760183 -0.292119 -0.761249 1.578676 -4.250051 4.157322 -7.752893 8.781028 -11.928183 12.893941 -15.019071 5.538227 -4.162024 -7.013224 10.351531 -10.053474 16.645844 -11.606717 24.029704 -2.031154 9.655772 -1.986572 10.371464 0.621994 9.984978 1.839054 -0.272475 2.391912 -1.498109 3.752776 -8.319551 1.687032 -8.456383 6.404060 -18.042235 8.301276 -16.869691 0.605907 0.374471 0.817303 0.224251 0.471593 -0.335119 -0.768650 -1.243702 3.773619 -7.379868 7.728885 -10.440977 3.277467 -2.536538 2.942421 -1.829989 -3.291275 6.940691 -2.408973 3.389375 -4.740379 5.939744 -5.180902 5.667486 -0.440523 -0.272258 -1.126573 0.031855 -1.524557 0.675806 -0.451923 0.731227 -0.290138 0.902922 0.430902 0.457295 1.539564 -0.951503 1.477355 -0.584780 -0.767994 4.527390 -2.879113 6.555112 -4.567134 16.956472 -2.917317 17.976115 0.977665 0.604230 1.870485 -1.338560 3.587413 -7.806272 2.499975 -9.417470 5.364020 -14.959392 7.730960 -14.959392 1.869729 -0.000000 1.876098 0.183476 0.102462 2.951850 -1.490929 2.327112 -4.823329 11.988605 -6.029997 17.482527 -0.675404 3.075096 -0.565942 3.232290 2.250810 3.232290 2.675404 0.000000 3.070170 -0.434585 4.096218 -4.509389 1.667361 -6.621693 5.909530 -15.727569 7.010135 -15.047357 0.524491 0.324154 1.279244 0.062501 1.677228 -0.581450 0.451923 -0.731227 0.290138 -0.902922 -0.430902 -0.457295 -4.648283 2.872797 7.702840 -11.767349 13.148055 -15.584773 3.702660 -2.595788 3.527529 -2.319242 -4.941746 7.803451 -2.826550 3.378364 -6.274543 8.107705 -7.662206 10.509647 -2.623279 4.540701 -7.079453 17.819660 -6.256214 18.642899 1.431593 1.431593 3.348821 -1.362504 5.423315 -7.903738 2.085944 -6.577336 3.109509 -8.135780 9.495550 -14.457582 6.194613 -6.132300 14.374355 -12.414412 16.164418 -12.414412 0.310985 0.000000 -3.197208 3.579151 -7.795983 7.953669 -8.717885 8.292761 -12.497376 13.995186 -15.057757 22.718854 -1.226621 4.179315 -1.268736 5.268224 -0.219327 5.670920 0.838776 0.321869 2.736741 -2.395674 5.358585 -7.672524 3.573446 -7.192089 4.936023 -8.842557 11.374292 -13.777504 6.418247 -4.919599 14.616997 -9.893416 16.308129 -9.893416 0.315314 0.000000 -3.883958 3.585285 -9.331716 7.967301 -8.881835 7.144285 -10.331480 8.787021 -14.033460 15.902695 -2.270645 4.364467 -4.128446 8.151722 -4.128446 8.416122 0.000000 0.264400 1.121538 0.695123 2.492306 0.957162 2.184620 0.417616 2.915330 -0.277856 5.918858 -5.633423 3.477842 -6.201312 7.318817 -10.456118 11.273094 -12.487671 2.817487 -1.447515 3.181645 -1.414290 2.934773 0.267761 -0.112201 0.764471 -1.651108 2.607607 -3.419793 4.095858 -2.837095 2.387258 -10.755447 14.310328 -9.991027 15.044003 0.160484 0.154029 1.053795 0.435334 1.985136 0.625122 1.156551 0.235681 3.217070 -1.861239 6.500000 -6.614830 4.412173 -6.388703 5.504244 -7.300823 13.306653 -11.113985 7.396464 -3.614770 15.000000 -6.150528 15.000000 -5.002458 0.000000 0.205512 -2.812500 1.819187 -6.250000 3.585945 -10.902176 5.603347 -14.279171 8.128038 -18.006648 13.462030 -4.263762 6.101412 -4.875494 8.028368 -2.548688 8.028368 0.932065 0.000000 3.411093 -2.456848 5.508949 -5.459662 3.014892 -4.315433 5.174671 -6.128037 10.305336 -8.648801 3.570078 -1.754027 8.066051 -3.480731 9.991051 -3.837122 2.833254 -0.524542 2.096194 0.111034 -3.869098 3.336374 -8.199806 4.433507 -11.277381 6.992116 -14.307376 11.894751 -1.128414 1.825811 -2.289456 3.081862 -2.580094 2.791224 -0.290638 -0.290638 0.049817 -1.225183 0.756568 -2.076765 0.706751 -0.851583 1.029057 -1.804276 0.716237 -2.117096 -0.312820 -0.312820 -1.314114 0.872583 -2.225097 2.634231 -0.910983 1.761647 -1.207599 2.925662 -0.659147 2.586700 0.548453 -0.338962 1.156290 -0.138986 1.350749 0.444391 0.508532 1.525595 4.074923 1.888504 5.711504 0.581192 1.131393 -0.903764 1.267170 -0.713352 0.720199 1.010001 -0.451107 1.421312 -0.189436 2.309696 0.791147 2.685981 0.805856 0.309236 1.631161 0.064345 1.834010 -0.544202 0.202849 -0.608547 1.157396 -1.222189 2.121216 -1.363647 0.990870 -0.145429 1.564838 0.251166 1.320791 0.912627 -0.237384 0.643403 -1.037730 1.024034 -1.778546 0.845845 -0.919102 -0.221072 -0.798668 0.281852 0.379156 1.583333 2.338654 2.584184 4.251448 2.398129 6.950043 -0.676021 l2.267739 -2.583333 -2.954350 2.500000 -2.954350 2.500000 1.556812 -2.500000 c2.913317 -4.678336 8.503730 -7.563149 18.351887 -9.470097 2.953240 -0.571851 2.945447 -0.554026 -0.500000 1.143608 -8.364640 4.121410 -11.341417 5.236830 -12.386005 4.641124 -0.612697 -0.349408 -0.795956 -0.282601 -0.407241 0.148459 0.388715 0.431060 -0.479635 2.339181 -1.929665 4.240269 -2.174758 2.851255 -2.386072 3.611491 -1.206754 4.341500 1.023848 0.633772 2.095069 0.035502 3.773836 -2.107662 2.698982 -3.445601 9.022728 -6.963703 12.365991 -6.879596 1.641374 0.041292 0.847844 0.713489 -2.802093 2.373642 -2.800562 1.273820 -6.071209 3.691305 -7.268103 5.372189 -3.054604 4.289796 -0.916210 5.085299 3.424626 1.273995 2.035797 -1.787453 4.620415 -3.077432 6.165985 -3.077432 2.445005 -0.000000 2.291759 0.234156 -1.888072 2.884926 -2.501981 1.586710 -4.797954 3.836710 -5.102161 5.000000 -0.304207 1.163290 -0.419231 2.115074 -0.255607 2.115074 0.163623 -0.000000 2.475745 -1.800000 5.138050 -4.000000 2.662304 -2.200000 5.912158 -4.000000 7.221898 -4.000000 2.011982 0.000000 1.636570 0.504098 -2.420334 3.250000 -4.746939 3.212949 -6.695135 5.750000 -4.415412 5.750000 0.646582 0.000000 2.319769 -0.900000 3.718192 -2.000000 1.398423 -1.100000 3.719402 -1.986316 5.157729 -1.969591 2.438651 0.028356 2.480165 0.102222 0.615141 1.094497 -1.100000 0.585249 -3.195883 2.417216 -4.657517 4.071037 -2.141543 2.423130 -3.010516 2.809401 -4.475631 1.989481 -4.409066 -2.467437 -6.134077 12.897936 -2.116852 18.855658 1.491463 2.211905 4.609893 4.463502 9.250000 6.678767 3.850000 1.838055 8.088977 3.952806 9.419949 4.699447 2.287476 1.283214 2.816502 1.011682 9.663959 -4.960198 6.125009 -5.341811 8.531700 -6.725637 15.580051 -8.958393 4.584823 -1.452367 10.586041 -2.850717 13.336041 -3.107444 4.608032 -0.430184 4.176868 -0.164154 -5.500000 3.393528 -11.737909 4.315419 -16.070821 6.388692 -17.861903 8.546813 -0.816506 0.983829 0.802829 0.649939 4.927045 -1.015906 6.798085 -2.745868 28.973005 -5.364406 32.488373 -3.836407 2.915227 1.267139 -7.700940 2.671184 -14.553516 1.924780 -3.025000 -0.329492 -5.204950 -0.298101 -4.844334 0.069759 0.360616 0.367860 6.156699 1.054869 12.880183 1.526687 14.838685 1.041298 18.417048 2.934448 5.914151 3.128910 l-8.450000 0.131425 6.500000 0.783650 c14.304328 1.724552 11.366087 2.626849 -8.271707 2.540137 -14.459317 -0.063846 -19.950593 0.242189 -20.874536 1.163363 -1.003784 1.000775 -0.609310 1.250000 1.978502 1.250000 3.660447 -0.000000 17.137406 4.968016 21.667740 7.987386 3.943027 2.627943 2.920673 2.530168 -5.096230 -0.487386 -8.624445 -3.246232 -9.118468 -3.131354 -2.403770 0.558967 3.025000 1.662505 6.400000 3.950003 7.500000 5.083329 1.956152 2.015417 1.901343 2.012815 -2.500000 -0.118673 l-4.500000 -2.179266 3.000000 2.630684 c2.645037 2.319419 2.707563 2.487916 0.528449 1.424067 -1.359353 -0.663639 -4.390255 -1.134043 -6.735338 -1.045341 -2.345082 0.088702 -6.367350 -0.310143 -8.938373 -0.886321 -2.571023 -0.576178 -5.030121 -0.692063 -5.464662 -0.257522 -0.434541 0.434541 0.199925 0.839164 1.409925 0.899160 1.210000 0.059997 7.150000 1.488616 13.200000 3.174710 8.919090 2.485690 10.243306 3.076913 7.000000 3.125294 -2.200000 0.032818 -6.700000 -0.578974 -10.000000 -1.359538 -4.288669 -1.014418 -6.285222 -1.110730 -7.000000 -0.337675 -0.680436 0.735913 -0.631795 0.875323 0.152210 0.436248 1.299023 -0.727505 18.347790 5.199927 18.347790 6.379070 0.000000 1.132726 -7.319936 -0.724656 -15.738043 -3.993418 -10.679611 -4.146906 -7.373605 -1.108343 8.770909 8.061377 7.131924 4.050772 12.967134 7.658469 12.967134 8.017105 0.000000 0.898255 -5.454494 -1.154198 -11.750000 -4.421366 -2.887500 -1.498521 -5.250000 -2.544860 -5.250000 -2.325196 0.000000 0.219663 2.985561 2.344557 6.634579 4.721986 3.649019 2.377429 6.154525 4.482617 5.567791 4.678195 -2.888584 0.962861 -23.065210 -12.647064 -30.003211 -20.238343 -2.859537 -3.128790 -5.180297 -5.314944 -5.157243 -4.858121 0.134040 2.656100 4.791367 8.769181 13.060020 17.142225 7.683347 7.780350 8.668248 9.093775 5.398065 7.198649 -2.200000 -1.274937 -6.002376 -4.161316 -8.449725 -6.414177 -4.699013 -4.325588 -4.144588 -3.212707 2.395260 4.807933 4.893443 6.001445 1.833170 4.797740 -4.382079 -1.723614 -8.035171 -8.430908 -11.732022 -14.260895 -13.542279 -21.356369 -0.957557 -3.753233 -2.038952 -7.866269 -2.403101 -9.140080 -0.782895 -2.738605 -7.640276 -6.546521 -23.868075 -13.253983 -1.237500 -0.511498 -3.262500 -1.351713 -4.500000 -1.867145 -1.237500 -0.515432 -3.330793 -1.242432 -4.651763 -1.615555 -2.354649 -0.665098 -2.389454 -0.582963 -1.774286 4.187149 l0.627477 4.865555 -1.975714 -2.360784 c-1.114619 -1.331861 -1.975714 -3.837939 -1.975714 -5.750000 0.000000 -2.228624 -0.476532 -3.389216 -1.391592 -3.389216 -2.018000 -0.000000 -2.782604 4.287021 -1.644511 9.220538 1.343236 5.822795 1.288573 6.233730 -0.618801 4.651907 -2.804752 -2.326037 -4.538648 -7.767344 -3.823652 -11.999372 0.745186 -4.410716 -1.072978 -5.508087 -2.132396 -1.287029 -0.740850 2.951781 0.023312 13.920775 1.178322 16.913956 0.757481 1.962996 0.732284 1.965356 -1.361867 0.127536 -3.736575 -3.279206 -5.709658 -10.094487 -4.554712 -15.732559 0.897492 -4.381264 0.818563 -4.894977 -0.752077 -4.894977 -2.510101 0.000000 -3.515088 9.341783 -2.031560 18.884214 0.635081 4.085000 0.976107 7.605858 0.757836 7.824128 -0.853062 0.853062 -4.575752 -6.526427 -5.601634 -11.104119 -0.757972 -3.382223 -0.773882 -6.502079 -0.053044 -10.401453 1.301497 -7.040443 1.295383 -7.202771 -0.271293 -7.202771 -0.833306 0.000000 -1.777672 2.682841 -2.627044 7.463140 -1.295745 7.292511 -1.074536 10.918017 1.527618 25.036860 l0.552911 3.000000 -2.053840 -2.500000 c-5.566053 -6.775180 -7.386652 -15.676834 -5.405973 -26.432019 1.217513 -6.611158 1.111736 -8.705743 -0.365064 -7.228943 -0.369804 0.369804 -1.274164 4.382304 -2.009689 8.916667 -1.160847 7.156393 -1.124670 9.737386 0.274159 19.559174 0.886312 6.223183 1.410582 11.515774 1.165044 11.761312 -0.245538 0.245538 -1.963175 -2.541791 -3.816972 -6.194064 -3.082490 -6.072993 -3.373515 -7.419970 -3.405355 -15.761312 -0.019149 -5.016448 0.361677 -11.765480 0.846279 -14.997847 0.723951 -4.828856 0.634775 -5.795927 -0.500000 -5.422284 -0.902045 0.297013 -1.859466 3.722985 -2.760233 9.877032 -1.340068 9.155356 -1.054168 15.628687 1.498206 33.922284 0.435494 3.121309 0.352183 3.283605 -0.769987 1.500000 -2.188229 -3.478025 -3.077648 -27.324478 -1.482584 -39.750000 0.726047 -5.655893 0.629042 -6.750000 -0.598460 -6.750000 -1.656985 0.000000 -3.783000 12.460354 -3.753692 22.000000 0.015872 5.166311 1.728768 14.111727 3.525978 18.414045 0.556563 1.332349 0.452259 1.699404 -0.343209 1.207778 -1.365151 -0.843710 -3.140135 -7.052895 -4.174168 -14.601924 -0.696395 -5.084076 -0.044205 -15.059197 1.534956 -23.476846 0.404041 -2.153724 0.269415 -3.543053 -0.343322 -3.543053 -3.123456 0.000000 -3.997859 33.060236 -1.187074 44.881976 1.374169 5.779548 0.600958 6.270236 -1.962508 1.245429 -4.712777 -9.237806 -6.326672 -24.965457 -4.117678 -40.127405 0.440722 -3.025000 0.608403 -5.711968 0.372624 -5.971040 -1.060064 -1.164789 -2.231881 3.048492 -3.402387 12.233323 -1.028606 8.071353 -1.023550 12.041517 0.026856 21.090403 0.711696 6.131022 1.475753 12.947313 1.697904 15.147313 l0.403910 4.000000 -3.032291 -5.736447 c-5.702908 -10.788684 -7.385793 -23.346174 -5.002745 -37.329894 0.556154 -3.263513 1.200619 -7.074731 1.432143 -8.469374 0.325225 -1.959069 -0.003575 -2.535714 -1.445851 -2.535714 -1.916825 0.000000 -2.904940 3.731166 -4.520979 17.071429 -0.538798 4.447732 1.426172 22.219808 3.123463 28.250000 1.243818 4.419080 -1.245008 2.142929 -4.373747 -4.000000 -4.560216 -8.953476 -5.962579 -18.409246 -4.373567 -29.489815 0.690941 -4.818102 1.481042 -9.675094 1.755780 -10.793315 0.368228 -1.498743 -0.019614 -2.072235 -1.475588 -2.181910 -1.692202 -0.127470 -2.156557 0.879933 -3.241867 7.033130 -1.592097 9.026441 -1.403766 18.384931 0.580481 28.845031 0.850555 4.483760 1.365732 8.333022 1.144838 8.553916 -0.220894 0.220894 -1.782824 -2.012460 -3.470957 -4.963008 -2.944531 -5.146504 -6.096097 -14.929022 -6.190081 -19.214127 -0.024607 -1.121946 -1.072242 1.110099 -2.328077 4.960099 -1.255835 3.850000 -3.035702 8.440153 -3.955259 10.200340 -0.919558 1.760187 -1.671923 3.392410 -1.671923 3.627163 0.000000 0.234752 2.008814 0.200400 4.464030 -0.076338 4.981598 -0.561498 5.773102 0.347557 7.032211 8.076612 0.620983 3.811910 0.639475 3.825090 4.461038 3.179441 2.265244 -0.382710 4.097489 -0.227617 4.472121 0.378549 0.349058 0.564787 1.367193 0.745782 2.262524 0.402212 1.046651 -0.401637 2.374132 0.281893 3.717975 1.914414 1.281537 1.556832 4.740680 3.407424 8.941728 4.783697 6.857879 2.246657 8.144211 2.273290 20.648374 0.427502 3.493002 -0.515615 3.495002 -0.513670 1.000000 0.973214 -1.375000 0.819425 -5.480193 2.029440 -9.122651 2.688923 -5.632677 1.019821 -7.320410 0.961309 -11.290462 -0.391423 -2.567296 -0.874766 -5.398423 -1.310121 -6.291394 -0.967456 -1.076174 0.412967 -1.382182 0.232431 -0.907601 -0.535457 0.478611 -0.774409 0.162562 -0.946117 -0.953297 -0.517922 -1.445919 0.554851 -1.370264 0.800591 0.565404 1.836529 1.953760 1.045621 2.022260 1.277481 0.544899 1.844397 -0.929381 0.356637 -2.669685 0.126371 -3.867342 -0.511703 -1.926618 -1.026441 -2.027913 -0.978668 -0.879000 0.414558 1.538964 1.866219 0.216570 3.029703 -2.458316 2.162905 -1.377601 -0.446412 -1.240389 -0.106098 0.545790 1.353666 1.679115 1.372266 2.030787 2.169551 1.186987 2.691048 -0.661691 0.408948 -2.069856 -0.047022 -3.142163 -1.017446 -1.068715 -0.967173 -2.177607 -1.524008 -2.464205 -1.237410 -0.493270 0.493270 5.828333 5.799985 6.909209 5.799985 0.280117 0.000000 0.335980 -0.900000 0.124140 -2.000000 -0.457623 -2.376246 0.418838 -2.528624 3.058870 -0.531803 2.245618 1.698500 3.840406 1.986863 2.941130 0.531803 -0.339919 -0.550000 -0.028976 -1.006891 0.690983 -1.015313 0.951189 -0.011127 0.898983 -0.280297 -0.190983 -0.984687 -2.694773 -1.741496 -0.308054 -1.050957 5.150703 1.490231 2.942113 1.369627 6.249297 2.455948 7.349297 2.414047 1.627949 -0.062012 1.534936 -0.218787 -0.500000 -0.842760 -3.878430 -1.189244 -15.261289 -7.133563 -14.712000 -7.682852 0.269710 -0.269710 3.637000 1.113222 7.482867 3.073181 5.171136 2.635353 9.172204 3.838782 15.360809 4.620177 4.602578 0.581138 9.943323 1.327543 11.868323 1.658677 l3.500000 0.602063 -3.000000 0.666377 c-1.650000 0.366507 -6.375000 0.538133 -10.500000 0.381391 l-7.500000 -0.284986 7.500000 1.283457 c4.125000 0.705902 6.825000 1.550995 6.000000 1.877986 -3.248812 1.287673 -16.799994 2.969792 -18.500000 2.296419 z m-2.770833 -2.157574 c-0.332292 -0.332292 -1.194792 -0.367818 -1.916667 -0.078947 -0.797733 0.319226 -0.560776 0.556183 0.604167 0.604167 1.054167 0.043421 1.644792 -0.192928 1.312500 -0.525219 z m-5.479167 -1.426995 c-3.573468 -1.436358 -2.652350 -1.865594 3.000000 -1.397983 l5.250000 0.434325 -4.359204 -2.002590 c-4.964401 -2.280614 -5.502506 -2.396865 -4.640796 -1.002590 0.917388 1.484366 -0.237747 1.217509 -3.246507 -0.750000 -1.471877 -0.962500 -2.353241 -1.225935 -1.958586 -0.585410 0.394655 0.640524 0.152251 1.358936 -0.538676 1.596469 -1.505696 0.517643 5.069513 4.758277 7.243769 4.671816 0.850251 -0.033811 0.525376 -0.451399 -0.750000 -0.964038 z m12.000000 -0.631119 c-0.687500 -0.277412 -1.812500 -0.277412 -2.500000 0.000000 -0.687500 0.277412 -0.125000 0.504386 1.250000 0.504386 1.375000 0.000000 1.937500 -0.226974 1.250000 -0.504386 z m0.000000 -2.000000 c-0.687500 -0.277412 -1.812500 -0.277412 -2.500000 0.000000 -0.687500 0.277412 -0.125000 0.504386 1.250000 0.504386 1.375000 0.000000 1.937500 -0.226974 1.250000 -0.504386 z m-7.594365 -2.454217 c-2.114401 -1.115458 -4.066684 -1.805786 -4.338408 -1.534063 -0.662391 0.662391 4.788996 3.571577 6.682773 3.566327 0.825000 -0.002287 -0.229964 -0.916806 -2.344365 -2.032264 z m13.613397 1.460561 c-0.677032 -0.273923 -2.027032 -0.290597 -3.000000 -0.037054 -0.972968 0.253543 -0.419032 0.477662 1.230968 0.498042 1.650000 0.020380 2.446064 -0.187065 1.769032 -0.460988 z m-31.269032 -9.344063 c0.000000 -0.550000 -0.450000 -1.000000 -1.000000 -1.000000 -0.550000 0.000000 -1.000000 0.450000 -1.000000 1.000000 0.000000 0.550000 0.450000 1.000000 1.000000 1.000000 0.550000 0.000000 1.000000 -0.450000 1.000000 -1.000000 z m-3.000000 -1.000000 c0.000000 -0.550000 -0.450000 -1.000000 -1.000000 -1.000000 -0.550000 0.000000 -1.000000 0.450000 -1.000000 1.000000 0.000000 0.550000 0.450000 1.000000 1.000000 1.000000 0.550000 0.000000 1.000000 -0.450000 1.000000 -1.000000 z m7.395154 -3.892501 c-0.190752 -0.215875 -0.988936 0.140407 -1.773742 0.791738 -1.102553 0.915038 -1.519488 0.906534 -1.834136 -0.037409 -0.272027 -0.816082 -1.051273 -0.937520 -2.347246 -0.365797 -1.836731 0.810280 -1.820226 0.876809 0.309970 1.249461 1.237500 0.216485 2.250000 0.891046 2.250000 1.499024 0.000000 0.607978 0.841945 0.239180 1.870988 -0.819551 1.029044 -1.058731 1.714918 -2.101591 1.524166 -2.317466 z m-8.247387 -2.338749 c-0.390647 -0.402188 -2.210148 -1.031226 -4.043335 -1.397864 -3.259580 -0.651916 -3.305574 -0.613745 -2.086066 1.731250 2.446230 4.703862 3.057539 5.024094 5.016526 2.627898 1.002728 -1.226519 1.503522 -2.559097 1.112875 -2.961284 z m28.121265 4.575313 c-0.677032 -0.273923 -2.027032 -0.290597 -3.000000 -0.037054 -0.972968 0.253543 -0.419032 0.477662 1.230968 0.498042 1.650000 0.020380 2.446064 -0.187065 1.769032 -0.460988 z m-71.687472 -3.394470 c4.240932 -2.621040 6.853449 -6.910651 8.800290 -14.449593 0.852185 -3.300000 2.918081 -9.945865 4.590880 -14.768590 2.858949 -8.242423 3.055866 -9.772571 3.281639 -25.500000 0.132102 -9.202276 -0.143807 -17.328148 -0.613131 -18.057494 -0.978397 -1.520463 -3.021579 1.194860 -9.000073 11.960807 -2.977846 5.362442 -3.399874 6.743891 -2.200805 7.204018 1.284770 0.493012 1.232507 1.278926 -0.390039 5.865277 -4.476803 12.654304 -14.606992 33.850874 -19.951091 41.745982 -3.325085 4.912317 -2.921680 6.630069 1.723950 7.340807 6.604611 1.010444 10.580429 0.622868 13.758380 -1.341214 z m35.534448 -0.699593 c-0.734384 -1.306903 -0.492825 -2.273719 0.954031 -3.818412 1.664347 -1.776891 1.811840 -2.740519 1.046501 -6.837182 -0.489997 -2.622824 -1.358058 -5.235925 -1.929025 -5.806892 -1.610076 -1.610076 -7.604772 -0.036717 -10.139277 2.661140 l-2.271625 2.418034 2.366132 4.289336 c1.301373 2.359135 3.489135 4.857496 4.861694 5.551914 1.693495 0.856789 1.959403 1.267316 0.827349 1.277320 -3.191473 0.028203 -4.928844 -1.255180 -6.882001 -5.083684 -1.832378 -3.591757 -2.135007 -3.774305 -4.483299 -2.704352 -2.832412 1.290533 -2.774588 3.115127 0.116378 3.672194 1.054424 0.203179 3.395292 1.665679 5.201930 3.250000 2.452105 2.150360 4.302566 2.880583 7.299690 2.880583 3.531660 0.000000 3.896535 -0.210631 3.031521 -1.750000 z m16.925645 -0.800188 c1.063801 -1.281802 0.992173 -1.844479 -0.413719 -3.250000 -1.491340 -1.490945 -1.816812 -1.515498 -2.648785 -0.199812 -2.447661 3.870744 0.219589 6.875314 3.062504 3.449812 z m-71.028208 -3.464204 c4.135348 -4.426904 15.507319 -27.443925 22.012078 -44.552738 1.590532 -4.183417 -1.284408 -2.844797 -3.919174 1.824832 -4.158860 7.370800 -14.205127 22.038776 -18.872751 27.555018 -6.648775 7.857585 -8.211412 8.608533 -19.181340 9.217871 l-9.552258 0.530592 5.916371 2.780376 c5.638127 2.649616 14.965776 5.396377 18.932419 5.575128 1.016835 0.045822 3.115929 -1.273164 4.664654 -2.931080 z m65.540406 0.927260 c1.169825 -1.892816 -0.930265 -2.807863 -4.553851 -1.984193 l-3.500000 0.795577 2.500000 1.074488 c3.281468 1.410359 4.734285 1.440214 5.553851 0.114128 z m-33.006859 -3.912868 c7.641280 0.000000 20.384789 -23.437345 20.750508 -38.163492 0.141446 -5.695519 -3.609302 -8.904136 -12.047499 -10.306158 l-4.250000 -0.706146 0.000000 8.566608 c0.000000 7.347855 -0.621736 10.525819 -4.370183 22.337898 -5.911013 18.626742 -6.139657 19.680911 -4.098826 18.897771 0.897921 -0.344565 2.705122 -0.626481 4.016001 -0.626481 z m47.542069 -8.863946 c-1.450543 -9.348975 -1.344812 -20.817458 0.284280 -30.835341 1.168417 -7.185024 1.148238 -8.270323 -0.163121 -8.773539 -0.823061 -0.315838 -1.640329 -0.430397 -1.816151 -0.254576 -0.792450 0.792450 -3.384935 19.785151 -3.375266 24.727402 0.015277 7.808901 4.163854 24.150677 5.732698 22.581833 0.234641 -0.234641 -0.063458 -3.585241 -0.662441 -7.445779 z m7.715402 -0.636054 c-0.967511 -5.859458 -0.435040 -28.650608 0.826525 -35.377399 0.490628 -2.616078 0.321839 -3.274750 -0.748789 -2.922023 -3.890441 1.281736 -4.856958 30.104838 -1.344783 40.103620 0.928138 2.642309 1.815828 4.667309 1.972644 4.500000 0.156816 -0.167309 -0.160702 -3.004198 -0.705597 -6.304198 z m-98.804462 3.490834 c1.276479 -0.832724 0.896256 -2.134599 -2.551583 -8.736575 -4.815475 -9.220746 -15.754175 -27.725518 -18.475287 -31.254259 -1.341827 -1.740083 -0.850544 0.235700 1.616239 6.500000 5.821160 14.782607 10.258389 26.824210 10.967328 29.762772 0.998788 4.139987 5.061844 5.933991 8.443302 3.728062 z m-10.457278 -3.614799 c-1.067939 -5.692602 -4.947884 -12.956502 -6.610546 -12.376035 -0.787697 0.275000 -6.382176 0.500000 -12.432176 0.500000 -10.593925 0.000000 -11.011626 0.081756 -11.314919 2.214654 -0.240388 1.690518 0.318215 2.373561 2.360287 2.886088 1.471363 0.369289 7.463077 2.856635 13.314919 5.527436 5.851842 2.670801 11.702294 4.859562 13.001004 4.863912 2.173246 0.007280 2.307149 -0.280690 1.681431 -3.616056 z m91.833324 -4.126035 c-1.699323 -10.369302 -1.668832 -17.072325 0.123954 -27.250000 0.823496 -4.675000 1.497881 -8.612500 1.498633 -8.750000 0.000752 -0.137500 -0.820849 -0.250000 -1.825781 -0.250000 -1.452705 0.000000 -2.061404 1.280830 -2.970236 6.250000 -2.085262 11.401475 -2.419221 17.189222 -1.330001 23.049878 0.973116 5.235950 4.445996 14.700122 5.394213 14.700122 0.208609 0.000000 -0.192243 -3.487500 -0.890782 -7.750000 z m-73.780312 1.981974 c5.910933 -7.125758 28.416252 -41.993243 34.050266 -52.754068 3.157654 -6.031040 2.903420 -7.139485 -3.299690 -14.386423 -4.567058 -5.335580 -8.179615 -6.678060 -13.763422 -5.114690 -4.411923 1.235262 -35.234497 17.279936 -43.511616 22.649947 -7.014511 4.550860 -7.020159 4.816713 -0.316547 14.901112 5.891509 8.862734 15.956181 25.969646 20.134240 34.222148 1.183425 2.337500 2.480036 4.241888 2.881357 4.231974 0.401322 -0.009914 2.122756 -1.697414 3.825410 -3.750000 z m195.728596 2.518026 c-0.436537 -0.687500 -0.800595 -1.550000 -0.809017 -1.916667 -0.008422 -0.366667 -0.424959 -1.041667 -0.925638 -1.500000 -0.528895 -0.484163 -0.608918 -0.309578 -0.190983 0.416667 1.190780 2.069217 -0.389866 1.425048 -4.509543 -1.837796 -2.144263 -1.698288 -3.601991 -3.567817 -3.239396 -4.154508 0.397697 -0.643487 0.183825 -0.772875 -0.539049 -0.326114 -0.659072 0.407329 -1.966101 0.161061 -2.904508 -0.547263 -0.938407 -0.708324 -1.256195 -0.770539 -0.706195 -0.138255 1.072517 1.232972 13.793633 11.230090 14.309017 11.244998 0.169959 0.004916 -0.048150 -0.553561 -0.484687 -1.241061 z m-89.454448 -9.304501 c-0.862696 -7.195883 -0.779235 -10.607982 0.426721 -17.445499 1.075888 -6.100062 1.188553 -8.693129 0.399031 -9.184017 -0.605078 -0.376209 -1.391709 -0.503819 -1.748068 -0.283577 -1.301706 0.804498 -3.206595 18.457282 -2.536662 23.507483 0.652934 4.922055 3.456251 13.426290 4.185443 12.697097 0.190293 -0.190293 -0.136616 -4.371463 -0.726465 -9.291487 z m-42.695226 -2.195499 c-1.266205 -8.717327 -1.241163 -10.747524 0.236431 -19.168139 1.135774 -6.472627 1.329920 -9.740853 0.620773 -10.450000 -1.841293 -1.841293 -2.900494 0.608969 -4.484700 10.374512 -1.241496 7.652974 -1.318449 10.656927 -0.396902 15.493628 0.957468 5.025229 4.200162 13.500000 5.165494 13.500000 0.151308 0.000000 -0.362186 -4.387500 -1.141097 -9.750000 z m145.825344 8.389239 c0.000000 -0.735349 -14.168840 -4.803733 -14.740146 -4.232426 -0.326253 0.326253 0.044313 0.600078 0.823479 0.608500 1.168934 0.012635 1.154361 0.192817 -0.083333 1.030377 -1.098781 0.743555 -0.724537 0.834189 1.399153 0.338844 2.041568 -0.476190 2.691767 -0.340662 2.198062 0.458169 -0.420670 0.680658 -0.180344 0.940904 0.600847 0.650651 0.716066 -0.266056 2.651938 -0.074580 4.301938 0.425502 3.278297 0.993586 5.500000 1.284582 5.500000 0.720384 z m-95.111881 -7.219921 c-1.050372 -5.618658 -0.774850 -14.027589 0.693621 -21.169318 0.519836 -2.528159 0.332489 -3.250000 -0.843509 -3.250000 -2.063828 0.000000 -4.160259 11.409179 -3.478323 18.929694 0.472146 5.206913 3.266733 12.876998 4.311177 11.832554 0.232987 -0.232987 -0.074348 -3.087306 -0.682966 -6.342930 z m90.111881 2.580682 c0.825000 -0.533156 1.050000 -0.969374 0.500000 -0.969374 -0.550000 0.000000 -1.675000 0.436219 -2.500000 0.969374 -0.825000 0.533156 -1.050000 0.969374 -0.500000 0.969374 0.550000 0.000000 1.675000 -0.436219 2.500000 -0.969374 z m-7.270833 -1.604167 c-0.332292 -0.332292 -1.194792 -0.367818 -1.916667 -0.078947 -0.797733 0.319226 -0.560776 0.556183 0.604167 0.604167 1.054167 0.043421 1.644792 -0.192928 1.312500 -0.525219 z m-75.227236 -12.397278 c0.001062 -6.599205 -0.304058 -11.998555 -0.678044 -11.998555 -0.889101 0.000000 -2.354078 10.642381 -1.995998 14.500000 0.246819 2.658999 2.047730 9.502342 2.499663 9.498555 0.094846 -0.000795 0.173317 -5.400795 0.174379 -12.000000 z m71.227236 11.397278 c-0.332292 -0.332292 -1.194792 -0.367818 -1.916667 -0.078947 -0.797733 0.319226 -0.560776 0.556183 0.604167 0.604167 1.054167 0.043421 1.644792 -0.192928 1.312500 -0.525219 z m-4.000000 -1.000000 c-0.332292 -0.332292 -1.194792 -0.367818 -1.916667 -0.078947 -0.797733 0.319226 -0.560776 0.556183 0.604167 0.604167 1.054167 0.043421 1.644792 -0.192928 1.312500 -0.525219 z m-4.000000 -1.000000 c-0.332292 -0.332292 -1.194792 -0.367818 -1.916667 -0.078947 -0.797733 0.319226 -0.560776 0.556183 0.604167 0.604167 1.054167 0.043421 1.644792 -0.192928 1.312500 -0.525219 z m12.000000 0.000000 c-0.332292 -0.332292 -1.194792 -0.367818 -1.916667 -0.078947 -0.797733 0.319226 -0.560776 0.556183 0.604167 0.604167 1.054167 0.043421 1.644792 -0.192928 1.312500 -0.525219 z m5.520833 -1.058114 c-0.687500 -0.277412 -1.812500 -0.277412 -2.500000 0.000000 -0.687500 0.277412 -0.125000 0.504386 1.250000 0.504386 1.375000 0.000000 1.937500 -0.226974 1.250000 -0.504386 z m-73.235710 -5.269310 c-0.446685 -2.437375 -0.671575 -4.912375 -0.499756 -5.500000 1.034851 -3.539218 1.300509 -7.568409 0.499010 -7.568409 -2.723035 0.000000 -3.279320 11.478600 -0.791672 16.335646 1.421635 2.775693 1.694039 1.652539 0.792418 -3.267238 z m48.485710 3.931591 c-0.339919 -0.550000 -1.153976 -0.993109 -1.809017 -0.984687 -0.715616 0.009201 -0.592275 0.402228 0.309017 0.984687 1.921123 1.241525 2.267305 1.241525 1.500000 0.000000 z m18.000000 -2.103084 c2.200000 -0.580454 8.500000 -1.431084 14.000000 -1.890289 l10.000000 -0.834918 -10.500000 0.349931 c-8.984923 0.299438 -25.277788 3.093392 -19.500000 3.343924 1.100000 0.047697 3.800000 -0.388195 6.000000 -0.968649 z m-21.770833 -0.501082 c-0.332292 -0.332292 -1.194792 -0.367818 -1.916667 -0.078947 -0.797733 0.319226 -0.560776 0.556183 0.604167 0.604167 1.054167 0.043421 1.644792 -0.192928 1.312500 -0.525219 z m15.439179 -4.011652 c2.932410 -2.538700 7.131655 -5.453817 9.331655 -6.478038 2.200000 -1.024221 3.325000 -1.867879 2.500000 -1.874797 -2.436981 -0.020435 -11.228108 5.492228 -14.946167 9.372311 -4.786388 4.994968 -3.252848 4.492993 3.114512 -1.019476 z m-53.635012 -2.384181 c0.000000 -6.215571 -0.926980 -7.952265 -1.801838 -3.375738 -0.412546 2.158095 0.805447 9.375738 1.582176 9.375738 0.120814 0.000000 0.219663 -2.700000 0.219663 -6.000000 z m33.466667 5.000000 c0.000000 -0.550000 -0.787500 -0.993109 -1.750000 -0.984687 -1.495547 0.013086 -1.531897 0.156261 -0.250000 0.984687 1.887213 1.219610 2.000000 1.219610 2.000000 0.000000 z m-4.000000 -2.000000 c0.000000 -0.550000 -0.787500 -0.993109 -1.750000 -0.984687 -1.495547 0.013086 -1.531897 0.156261 -0.250000 0.984687 1.887213 1.219610 2.000000 1.219610 2.000000 0.000000 z m33.754105 -0.903077 c2.655480 -1.046693 5.709639 -2.115019 6.787020 -2.374059 1.077381 -0.259040 0.537515 -0.337623 -1.199701 -0.174629 -1.737217 0.162994 -5.112217 1.193403 -7.500000 2.289799 -5.581918 2.563042 -4.354493 2.729179 1.912681 0.258890 z m7.514927 0.247141 c-0.677032 -0.273923 -2.027032 -0.290597 -3.000000 -0.037054 -0.972968 0.253543 -0.419032 0.477662 1.230968 0.498042 1.650000 0.020380 2.446064 -0.187065 1.769032 -0.460988 z m9.480968 -1.060318 c-1.512500 -0.229125 -3.987500 -0.229125 -5.500000 0.000000 -1.512500 0.229125 -0.275000 0.416590 2.750000 0.416590 3.025000 0.000000 4.262500 -0.187466 2.750000 -0.416590 z m-74.057009 -4.014714 c-0.253543 -0.972968 -0.477662 -0.419032 -0.498042 1.230968 -0.020380 1.650000 0.187065 2.446064 0.460988 1.769032 0.273923 -0.677032 0.290597 -2.027032 0.037054 -3.000000 z m19.307009 3.337957 c0.000000 -0.216156 -0.675000 -0.652033 -1.500000 -0.968615 -0.825000 -0.316582 -1.500000 -0.139727 -1.500000 0.393011 0.000000 0.532738 0.675000 0.968615 1.500000 0.968615 0.825000 0.000000 1.500000 -0.176855 1.500000 -0.393011 z m-6.000000 -2.606989 c-1.958372 -1.265597 -3.282182 -1.265597 -2.500000 0.000000 0.339919 0.550000 1.378976 0.993109 2.309017 0.984687 1.457275 -0.013196 1.483670 -0.149288 0.190983 -0.984687 z m-4.000000 -1.883369 c0.000000 -0.485853 -0.900000 -1.118724 -2.000000 -1.406380 -1.965697 -0.514041 -2.644339 0.312077 -1.333333 1.623082 0.970133 0.970133 3.333333 0.816499 3.333333 -0.216702 z m-6.000000 -1.509643 c0.000000 -1.609659 -2.709798 -2.904378 -4.178698 -1.996547 -0.766587 0.473777 1.424243 2.309280 3.928698 3.291510 0.137500 0.053927 0.250000 -0.528807 0.250000 -1.294963 z m8.525680 -1.557329 c-1.885412 -3.645985 -1.895999 -10.263407 -0.024824 -15.517241 1.091421 -3.064463 1.138336 -4.141341 0.206107 -4.730942 -3.650625 -2.308890 -5.090964 14.416335 -1.717923 19.948524 2.474543 4.058545 3.593250 4.276704 1.536641 0.299660 z m-185.518500 -5.373551 l-3.010509 -6.639535 -4.748336 1.763019 c-6.622854 2.459012 -6.469283 4.934799 0.445935 7.189140 2.856849 0.931325 6.231849 2.390666 7.500000 3.242980 1.268151 0.852314 2.422209 1.444873 2.564574 1.316797 0.142365 -0.128076 -1.095884 -3.220657 -2.751664 -6.872401 z m171.008152 3.798891 c-0.226727 -1.641518 -4.015333 -2.609688 -4.015333 -1.026109 0.000000 1.385082 1.771877 2.553602 3.325000 2.192776 0.453750 -0.105417 0.764400 -0.630417 0.690333 -1.166667 z m-79.613020 -4.609281 c0.627232 -3.534740 0.547920 -3.652474 -2.895719 -4.298504 -1.947338 -0.365323 -3.976914 -0.394575 -4.510169 -0.065005 -0.533255 0.329570 -2.495051 0.178008 -4.359548 -0.336804 -1.864496 -0.514812 -3.887196 -0.628733 -4.494890 -0.253158 -0.607693 0.375575 0.976793 1.239631 3.521082 1.920124 5.557511 1.486408 10.336931 4.693233 10.336931 6.935723 0.000000 2.774813 1.710518 -0.003795 2.402313 -3.902375 z m86.847483 -1.618573 c-0.350294 -4.895819 -0.032265 -7.832008 1.156470 -10.677050 1.159409 -2.774856 1.327831 -4.235999 0.575043 -4.988787 -0.752787 -0.752787 -1.344229 -0.627710 -2.019362 0.427050 -1.485050 2.320094 -2.950221 8.155147 -2.956370 11.773759 -0.005116 3.010789 2.329476 10.217881 3.309876 10.217881 0.229629 0.000000 0.200083 -3.038784 -0.065658 -6.752854 z m-12.748638 4.750981 c0.340555 -0.551030 -0.608051 -1.468469 -2.108014 -2.038754 -2.054666 -0.781183 -2.923588 -0.719129 -3.523552 0.251633 -0.504575 0.816419 -0.168586 1.537642 0.917031 1.968469 2.527318 1.002966 4.018027 0.945625 4.714535 -0.181348 z m-7.514912 -1.481554 c1.022807 -1.232407 0.761437 -1.662006 -1.544587 -2.538754 -2.106088 -0.800733 -2.972978 -0.744420 -3.593377 0.233427 -1.284139 2.024006 -1.014216 2.617692 1.401719 3.083021 1.237500 0.238353 2.307400 0.494651 2.377555 0.569551 0.070155 0.074900 0.681566 -0.531360 1.358690 -1.347245 z m13.673312 -4.368759 c-0.800120 -3.905928 -0.658281 -5.807341 0.727316 -9.750000 3.076569 -8.754246 3.060194 -8.630859 1.094661 -8.248679 -3.673767 0.714330 -5.938353 14.559391 -3.321019 20.303812 1.853630 4.068275 2.576815 2.956207 1.499042 -2.305133 z m-21.159557 1.338490 c0.000000 -2.861118 -5.033313 -3.378922 -5.761911 -0.592759 -0.344277 1.316517 0.038663 2.154124 1.119297 2.448247 2.993471 0.814751 4.642614 0.155647 4.642614 -1.855488 z m-7.680449 -1.314633 c0.251295 -1.707807 -0.186581 -2.171672 -2.050000 -2.171672 -1.303253 0.000000 -2.909551 -0.540000 -3.569551 -1.200000 -0.933333 -0.933333 -1.200000 -0.840397 -1.200000 0.418213 0.000000 0.890017 -0.260366 2.296714 -0.578590 3.125994 -0.414123 1.079187 0.225450 1.626102 2.250000 1.924031 4.102323 0.603689 4.792149 0.322760 5.148141 -2.096566 z m23.155698 0.263228 c-1.755261 -4.616685 -0.871474 -11.543623 2.511537 -19.684900 1.475077 -3.549800 -1.493562 -1.657042 -3.466462 2.210162 -2.506795 4.913724 -2.757345 14.542581 -0.463620 17.817332 2.063351 2.945847 2.617889 2.811920 1.418545 -0.342593 z m-31.975249 -1.821401 c0.000000 -1.872403 -0.628767 -2.478784 -2.918809 -2.814891 -2.406225 -0.353159 -2.994839 -0.030665 -3.351746 1.836377 -0.323199 1.690708 0.099800 2.369691 1.668809 2.678709 4.155142 0.818360 4.601746 0.653354 4.601746 -1.700195 z m25.827105 -0.679622 c-1.478186 -4.240326 -0.560550 -11.914151 2.015746 -16.856882 2.573892 -4.938121 2.549228 -4.712563 0.597211 -5.461622 -1.137823 -0.436624 -2.106150 0.636196 -3.578475 3.964631 -2.549917 5.764509 -2.779663 13.856514 -0.515878 18.169996 2.150164 4.096986 2.876962 4.187199 1.481397 0.183877 z m-34.024636 -0.553525 c0.213821 -1.498415 -0.359546 -2.292769 -1.956330 -2.710337 -2.631904 -0.688258 -2.399291 -0.862425 -3.173318 2.376000 -0.540042 2.259465 -0.302641 2.540836 2.109324 2.500000 1.988772 -0.033671 2.798994 -0.614625 3.020324 -2.165663 z m-7.013215 -1.380352 c0.259032 -2.238795 -0.080534 -2.507839 -3.250000 -2.575026 -2.194702 -0.046524 -3.539254 0.397277 -3.539254 1.168213 0.000000 0.683781 -0.229820 1.842543 -0.510712 2.575026 -0.369480 0.963497 0.529271 1.331787 3.250000 1.331787 3.267625 0.000000 3.798637 -0.327788 4.049966 -2.500000 z m35.245930 1.065741 c-1.929870 -3.605996 -1.231512 -13.338988 1.318503 -18.375910 2.354037 -4.649817 2.372826 -5.689831 0.102791 -5.689831 -1.920896 0.000000 -5.456477 9.417620 -5.456477 14.534252 0.000000 4.705369 2.446387 11.465748 4.149125 11.465748 0.522385 0.000000 0.473053 -0.837449 -0.113941 -1.934259 z m-43.753445 -1.035110 c0.692291 -2.647325 -0.339615 -3.509810 -4.429716 -3.702434 -3.245717 -0.152858 -3.691341 0.123649 -4.041224 2.507560 -0.370256 2.522716 -0.147959 2.688855 3.802284 2.841736 3.290217 0.127337 4.297622 -0.228024 4.668657 -1.646862 z m-28.568186 -3.334717 c-0.307965 -0.802543 -2.094499 -1.638320 -3.970078 -1.857283 -3.144491 -0.367102 -3.410142 -0.185493 -3.410142 2.331287 0.000000 2.180877 0.519170 2.797385 2.583333 3.067678 3.048908 0.399241 5.589384 -1.476467 4.796886 -3.541682 z m8.786447 1.435820 c0.000000 -2.009938 -0.542172 -2.401182 -3.583333 -2.585820 -3.276500 -0.198926 -3.583333 0.012656 -3.583333 2.470948 0.000000 2.436920 0.335318 2.678893 3.583333 2.585820 3.073498 -0.088073 3.583333 -0.439638 3.583333 -2.470948 z m9.000000 0.385229 c0.000000 -1.500081 -0.872697 -2.124889 -3.583333 -2.565491 -3.413050 -0.554776 -3.583333 -0.446263 -3.583333 2.283466 0.000000 2.677259 0.235887 2.846143 3.583333 2.565491 2.805449 -0.235211 3.583333 -0.730915 3.583333 -2.283466 z m42.024046 -2.118182 c-1.917008 -3.675925 -1.879014 -10.735045 0.085572 -15.898781 2.659343 -6.989841 2.730234 -7.500000 1.042196 -7.500000 -2.000225 0.000000 -3.358016 2.531620 -4.690760 8.745990 -1.181370 5.508539 -0.195447 11.721145 2.517097 15.861011 2.213082 3.377590 2.977120 2.494970 1.045894 -1.208219 z m5.295159 0.512434 c-1.415659 -4.060963 -0.439940 -11.774150 2.125580 -16.802985 2.464030 -4.829898 2.491618 -5.108230 0.506323 -5.108230 -4.258507 0.000000 -7.093334 15.923605 -3.925428 22.049660 1.988142 3.844642 2.657078 3.773047 1.293525 -0.138445 z m-16.975255 -0.908414 c-2.973196 -4.021462 -3.654318 -13.176265 -1.459555 -19.617539 1.949833 -5.722445 1.937739 -5.385262 0.193157 -5.385262 -1.461989 0.000000 -2.997381 3.770679 -4.108887 10.090772 -0.827013 4.702450 0.946879 11.061190 4.146529 14.863759 3.294228 3.914968 4.111259 3.947064 1.228756 0.048270 z m5.520684 -0.973695 c-2.065883 -4.141161 -2.026819 -13.508510 0.077335 -18.544460 1.908629 -4.567992 1.908499 -4.484647 0.007005 -4.484647 -3.628142 0.000000 -5.916988 14.008630 -3.379370 20.683070 1.086710 2.858265 3.968644 6.612016 4.595269 5.985391 0.189090 -0.189090 -0.396017 -1.826800 -1.300239 -3.639355 z m-18.505296 -2.756704 c-1.841270 -2.979238 -2.299107 -5.137428 -2.280495 -10.750000 0.012808 -3.862322 0.564024 -8.007593 1.224927 -9.211715 0.856422 -1.560347 0.888542 -2.382817 0.111804 -2.862868 -1.731339 -1.070026 -2.817304 0.729302 -4.002766 6.632157 -1.339016 6.667452 -0.087802 12.370168 3.702389 16.874553 3.480394 4.136213 4.034338 3.832501 1.244143 -0.682128 z m-11.874887 -0.797563 c-2.600436 -4.207594 -3.657167 -13.379774 -2.164331 -18.785887 0.915714 -3.316139 0.841602 -3.770455 -0.570700 -3.498471 -4.442535 0.855554 -3.899750 15.231226 0.821153 21.748243 3.615996 4.991738 4.887779 5.347989 1.913877 0.536114 z m16.985074 0.468215 c-1.679306 -3.137811 -1.400905 -13.731003 0.478134 -18.193055 1.496316 -3.553221 1.481836 -3.750000 -0.275950 -3.750000 -2.249949 0.000000 -4.182180 5.641538 -4.149746 12.116020 0.021420 4.275843 3.454461 13.740891 4.576829 12.618523 0.309787 -0.309787 0.026617 -1.565957 -0.629267 -2.791488 z m-35.126138 -2.564202 c-1.636923 -3.700536 -1.972874 -6.190748 -1.686355 -12.500000 0.353374 -7.781446 -0.337113 -10.006430 -1.746822 -5.628853 -1.512295 4.696140 -0.790200 13.333594 1.512330 18.089988 2.927490 6.047387 4.593613 6.081098 1.920846 0.038865 z m6.109283 0.754844 c-2.538313 -4.869860 -3.484706 -12.547286 -2.144865 -17.399791 0.815219 -2.952481 0.753571 -3.733905 -0.294574 -3.733905 -2.005282 0.000000 -2.924291 9.118041 -1.512260 15.004044 1.018762 4.246676 4.214101 9.995956 5.555559 9.995956 0.226253 0.000000 -0.495484 -1.739837 -1.603861 -3.866303 z m-18.103296 0.584854 c-1.343995 -2.511277 -1.627926 -11.810999 -0.529989 -17.358968 l0.819384 -4.140417 -6.819384 0.522741 c-3.750661 0.287508 -6.985455 0.666767 -7.188431 0.842798 -0.202976 0.176031 0.366333 1.055437 1.265131 1.954235 3.548912 3.548912 6.394552 8.116605 6.984410 11.211060 1.695346 8.893960 1.744630 9.000000 4.182946 9.000000 2.075501 0.000000 2.236779 -0.254778 1.285934 -2.031449 z m7.135571 2.031449 c-0.008281 -0.137500 -0.663529 -2.050000 -1.456107 -4.250000 -1.672603 -4.642732 -1.929409 -11.616490 -0.598642 -16.256602 0.685790 -2.391209 0.610305 -3.243398 -0.287292 -3.243398 -2.320257 0.000000 -2.981773 17.794095 -0.808581 21.750000 0.975810 1.776287 3.223063 3.202833 3.150622 2.000000 z m15.835217 -3.648691 c-2.024067 -4.091003 -2.623741 -11.357418 -1.390685 -16.851309 0.823625 -3.669665 -0.836475 -4.592359 -1.799190 -1.000000 -1.676017 6.254036 0.041985 16.240332 3.513543 20.423303 1.794032 2.161676 1.717508 1.553590 -0.323668 -2.571994 z m11.603659 0.751374 c-1.211986 -2.343723 -1.514692 -4.960822 -1.185563 -10.250000 0.243088 -3.906476 0.787070 -7.890183 1.208849 -8.852683 0.546441 -1.246977 0.317981 -1.750000 -0.794804 -1.750000 -3.377039 0.000000 -3.555819 16.209436 -0.234375 21.250000 2.443039 3.707513 3.012306 3.482658 1.005893 -0.397317 z m45.576181 -22.471302 c3.248533 -5.191324 6.947395 -9.064548 11.595670 -12.142285 1.047382 -0.693497 0.035357 -0.369057 -2.248943 0.720978 -4.416944 2.107701 -8.577017 6.546422 -12.234429 13.053909 -3.394433 6.039579 -1.102360 4.743724 2.887703 -1.632602 z m-18.000000 3.225607 c0.000000 -0.216156 -0.698372 -0.661002 -1.551938 -0.988546 -0.889925 -0.341496 -1.291322 -0.173849 -0.940983 0.393011 0.587258 0.950203 2.492921 1.405448 2.492921 0.595534 z m10.053282 -6.356989 c1.784309 -3.162500 4.864766 -7.292936 6.845458 -9.178747 3.354628 -3.193930 3.395805 -3.301803 0.601260 -1.575139 -1.650000 1.019484 -3.575268 2.562420 -4.278374 3.428747 -1.828847 2.253401 -7.201094 11.434137 -7.212242 12.325139 -0.021021 1.680022 0.957809 0.469767 4.043898 -5.000000 z m-84.053282 3.750000 c0.000000 -0.550000 -1.125000 -1.000000 -2.500000 -1.000000 -1.375000 0.000000 -2.500000 0.450000 -2.500000 1.000000 0.000000 0.550000 1.125000 1.000000 2.500000 1.000000 1.375000 0.000000 2.500000 -0.450000 2.500000 -1.000000 z m5.640804 0.000000 c0.812476 0.000000 1.199114 -0.450000 0.859196 -1.000000 -1.003850 -1.624263 -5.166667 -1.186738 -5.166667 0.543033 0.000000 0.919608 0.571745 1.323634 1.415121 1.000000 0.778316 -0.298668 2.079874 -0.543033 2.892350 -0.543033 z m54.359196 0.000000 c0.000000 -0.550000 -0.926558 -1.000000 -2.059017 -1.000000 -1.132459 0.000000 -1.780902 0.450000 -1.440983 1.000000 0.339919 0.550000 1.266476 1.000000 2.059017 1.000000 0.792541 0.000000 1.440983 -0.450000 1.440983 -1.000000 z m4.250000 0.337719 c-0.687500 -0.277412 -1.812500 -0.277412 -2.500000 0.000000 -0.687500 0.277412 -0.125000 0.504386 1.250000 0.504386 1.375000 0.000000 1.937500 -0.226974 1.250000 -0.504386 z m40.859945 -5.455538 c1.314530 -1.010740 2.068213 -1.847715 1.674851 -1.859945 -1.247989 -0.038800 -7.785750 6.135793 -7.762560 7.331356 0.012230 0.630524 0.849205 0.070883 1.859945 -1.243647 1.010740 -1.314530 2.913234 -3.217024 4.227764 -4.227764 z m-92.109945 4.117819 c0.000000 -0.550000 -1.125000 -1.000000 -2.500000 -1.000000 -1.375000 0.000000 -2.500000 0.450000 -2.500000 1.000000 0.000000 0.550000 1.125000 1.000000 2.500000 1.000000 1.375000 0.000000 2.500000 -0.450000 2.500000 -1.000000 z m6.000000 -0.500000 c0.000000 -0.933333 -0.944444 -1.500000 -2.500000 -1.500000 -1.555556 0.000000 -2.500000 0.566667 -2.500000 1.500000 0.000000 0.933333 0.944444 1.500000 2.500000 1.500000 1.555556 0.000000 2.500000 -0.566667 2.500000 -1.500000 z m7.000000 -0.166667 c0.000000 -0.797386 -1.138889 -1.333333 -2.833333 -1.333333 -1.694444 0.000000 -2.833333 0.535948 -2.833333 1.333333 0.000000 0.797386 1.138889 1.333333 2.833333 1.333333 1.694444 0.000000 2.833333 -0.535948 2.833333 -1.333333 z m17.000000 0.726067 c0.000000 -0.454376 -0.900000 -1.061493 -2.000000 -1.349150 -1.100000 -0.287656 -2.000000 -0.111327 -2.000000 0.391843 0.000000 0.503170 -0.913731 0.348541 -2.030513 -0.343620 -1.653082 -1.024550 -2.187485 -1.006280 -2.875000 0.098289 -0.588438 0.945391 -1.051882 1.021191 -1.528504 0.250000 -0.939005 -1.519341 -5.232874 -1.401781 -5.231701 0.143237 0.000666 0.877101 2.337501 1.307507 7.833333 1.442769 4.307811 0.106023 7.832384 -0.178993 7.832384 -0.633369 z m6.000000 -0.059401 c0.000000 -0.550000 -1.125000 -1.000000 -2.500000 -1.000000 -1.375000 0.000000 -2.500000 0.450000 -2.500000 1.000000 0.000000 0.550000 1.125000 1.000000 2.500000 1.000000 1.375000 0.000000 2.500000 -0.450000 2.500000 -1.000000 z m6.000000 0.000000 c0.000000 -0.550000 -0.900000 -1.000000 -2.000000 -1.000000 -1.100000 0.000000 -2.000000 0.450000 -2.000000 1.000000 0.000000 0.550000 0.900000 1.000000 2.000000 1.000000 1.100000 0.000000 2.000000 -0.450000 2.000000 -1.000000 z m20.428663 -6.418622 c2.562462 -5.327578 5.189373 -8.904924 9.319775 -12.691737 6.000257 -5.501123 4.926599 -5.025437 -2.748438 1.217702 -5.068542 4.122925 -13.331686 18.892657 -10.569775 18.892657 0.236624 0.000000 2.035921 -3.338380 3.998438 -7.418622 z m-9.778573 3.676635 c1.921584 -7.656199 5.740132 -15.099990 10.116856 -19.721566 2.603179 -2.748812 3.383053 -3.898223 1.733053 -2.554247 -5.046164 4.110257 -7.578873 7.296005 -9.985974 12.560774 -2.955821 6.464922 -4.616535 12.457025 -3.452471 12.457025 0.495187 0.000000 1.210028 -1.233894 1.588535 -2.741987 z m-14.740782 -7.601183 c1.174630 -4.313743 2.822349 -9.263743 3.661599 -11.000000 1.398452 -2.893145 1.393846 -2.990962 -0.055141 -1.171061 -1.565914 1.966759 -4.584554 10.763251 -6.010254 17.514230 -1.282687 6.073785 0.180721 2.820914 2.403796 -5.343169 z m10.230157 -2.111771 c1.578728 -4.375217 2.423955 -7.508480 1.878281 -6.962807 -1.107264 1.107264 -6.062382 15.160364 -5.938800 16.842900 0.043421 0.591166 0.328958 0.399848 0.634526 -0.425152 0.305568 -0.825000 1.847265 -5.079723 3.425993 -9.454940 z m-32.250356 1.802571 c0.604302 -3.933803 1.333071 -7.983803 1.619486 -9.000000 0.286415 -1.016197 -0.109478 -0.497630 -0.879763 1.152370 -1.335545 2.860823 -3.406746 16.544695 -2.346092 15.500000 0.279201 -0.275000 1.002067 -3.718566 1.606369 -7.652370 z m7.358238 -1.347630 c0.871092 -4.125000 1.875439 -8.400000 2.231881 -9.500000 0.425123 -1.311952 0.148711 -1.139940 -0.803466 0.500000 -0.798349 1.375000 -1.982984 5.200000 -2.632522 8.500000 -0.649538 3.300000 -1.425565 6.900000 -1.724505 8.000000 -0.347307 1.277976 -0.202671 1.638988 0.400640 1.000000 0.519292 -0.550000 1.656878 -4.375000 2.527970 -8.500000 z m7.707202 1.750000 c0.701170 -3.987500 1.904146 -8.781593 2.673279 -10.653540 1.927683 -4.691671 1.077679 -4.997657 -0.990757 -0.356655 -1.947114 4.368789 -4.747465 18.260195 -3.681050 18.260195 0.398020 0.000000 1.297357 -3.262500 1.998527 -7.250000 z M130.507079 157.011454 c-0.350339 -0.566860 0.051058 -0.734508 0.940983 -0.393011 1.732417 0.664791 2.049387 1.381557 0.610955 1.381557 -0.517541 0.000000 -1.215913 -0.444846 -1.551938 -0.988546 z M53.288869 115.460440 c0.183999 -2.504302 -0.495673 -3.293028 -5.288869 -6.137477 -8.693137 -5.158809 -9.014432 -5.585059 -1.442440 -1.913635 8.863562 4.297667 10.172008 5.710980 8.068102 8.714727 -1.545420 2.206397 -1.547582 2.205323 -1.336793 -0.663615 z M44.421136 100.615524 c-2.793375 -1.300716 -6.055875 -3.607006 -7.250000 -5.125090 -3.516307 -4.470260 -2.485308 -5.141748 1.578864 -1.028313 6.736719 6.818377 15.192252 8.460592 22.738260 4.416173 3.149246 -1.687895 3.672267 -1.776645 2.558024 -0.434063 -4.128891 4.975009 -11.784888 5.822055 -19.625148 2.171293 z M45.619302 97.018028 c-9.244935 -2.936383 -12.381092 -16.346235 -6.106742 -26.111740 6.251605 -9.730105 22.067656 -9.033417 28.746083 1.266248 4.848110 7.476897 2.680455 17.680647 -4.837281 22.770416 -3.977522 2.692921 -12.667641 3.705875 -17.802061 2.075077 z m15.542402 -3.638388 c8.639687 -4.348501 9.089307 -14.612876 0.827252 -18.885351 -5.459514 -2.823225 -11.713491 -1.202532 -15.900660 4.120590 -3.232075 4.108918 -2.649293 7.253710 2.348465 12.672722 4.738153 5.137524 6.197446 5.377438 12.724943 2.092039 z M23.591857 79.148627 c-0.339648 -0.549563 0.263564 -0.737691 1.406763 -0.438737 1.322280 0.345784 2.001380 0.031376 2.001380 -0.926592 0.000000 -2.254475 -1.169625 -2.886691 -2.820612 -1.524622 -1.231630 1.016097 -1.414644 0.969163 -1.008676 -0.258676 0.272775 -0.825000 1.358455 -1.500000 2.412621 -1.500000 1.374962 0.000000 1.916667 0.702700 1.916667 2.486305 0.000000 2.523840 -2.745791 4.043048 -3.908143 2.162322 z M68.985016 68.475756 c-1.197957 -1.938334 -3.572840 -4.245491 -5.277519 -5.127015 -4.535333 -2.345312 -12.891704 -1.856378 -19.615213 1.147694 -3.196021 1.427986 -4.735295 1.814400 -3.592283 0.901796 3.589045 -2.865569 10.577834 -5.398694 14.832905 -5.376268 7.260016 0.038263 14.493999 4.404829 16.116202 9.728038 0.993940 3.261583 0.031659 2.763963 -2.464091 -1.274244 z M130.881579 152.250000 c-0.065132 -0.412500 -0.070530 -1.071305 -0.011996 -1.464012 0.058534 -0.392707 -0.517659 -0.474528 -1.280428 -0.181826 -1.652610 0.634166 -3.063584 -1.192914 -1.613386 -2.089186 1.414325 -0.874101 4.327064 0.940677 4.610616 2.872637 0.130156 0.886813 -0.173534 1.612387 -0.674868 1.612387 -0.501334 0.000000 -0.964806 -0.337500 -1.029937 -0.750000 z M142.930483 150.245425 c-5.958917 -1.561695 -10.020344 -3.573828 -8.788765 -4.354173 1.128755 -0.715195 1.118889 -0.863214 -0.058385 -0.875939 -0.779167 -0.008422 -1.197363 -0.234616 -0.929325 -0.502654 0.268038 -0.268038 3.031796 0.406962 6.141684 1.500000 3.902072 1.371468 8.373694 2.006985 14.429325 2.050728 5.827918 0.042098 8.071701 0.347748 6.680938 0.910084 -2.301192 0.930455 -15.197036 1.869081 -17.475473 1.271955 z m-1.430483 -2.245425 c-2.749085 -1.181322 -4.327966 -1.181322 -2.500000 0.000000 0.825000 0.533156 2.175000 0.944637 3.000000 0.914402 0.989055 -0.036247 0.818740 -0.347720 -0.500000 -0.914402 z M192.000000 56.033961 c0.000000 -1.317774 2.633530 -3.067097 3.425343 -2.275285 0.407728 0.407728 0.591324 0.100051 0.407991 -0.683728 -0.392176 -1.676612 6.361012 -5.727262 12.758193 -7.652531 2.424660 -0.729716 4.408474 -1.129757 4.408474 -0.888982 0.000000 0.240776 -2.812500 1.841827 -6.250000 3.557892 -3.437500 1.716065 -7.489869 4.284004 -9.005265 5.706531 -2.740656 2.572699 -5.744735 3.742018 -5.744735 2.236102 z M185.000000 55.302443 c0.000000 -0.518345 1.540794 -2.742518 3.423987 -4.942605 3.732982 -4.361150 13.028323 -9.763615 18.576013 -10.796404 2.886665 -0.537398 2.273329 0.012423 -3.500000 3.137551 -3.850000 2.084022 -8.912500 5.745154 -11.250000 8.135849 -2.337500 2.390695 -4.250000 4.025319 -4.250000 3.632497 0.000000 -0.392822 -0.675000 -0.154021 -1.500000 0.530669 -0.825000 0.684689 -1.500000 0.820789 -1.500000 0.302443 z m5.500000 -4.302443 c0.995486 -1.100000 1.584975 -2.000000 1.309975 -2.000000 -0.275000 0.000000 -1.314489 0.900000 -2.309975 2.000000 -0.995486 1.100000 -1.584975 2.000000 -1.309975 2.000000 0.275000 0.000000 1.314489 -0.900000 2.309975 -2.000000 z M180.333333 30.435297 c0.000000 -1.795585 5.529198 -4.856918 10.666667 -5.905779 3.058918 -0.624506 2.656245 -0.198803 -3.195226 3.377963 -3.682374 2.250886 -6.869874 4.092520 -7.083333 4.092520 -0.213459 0.000000 -0.388108 -0.704116 -0.388108 -1.564703 z M140.318392 19.669824 c0.237384 -0.643403 0.971307 -1.046175 1.630938 -0.895048 0.659631 0.151127 0.940741 -0.143629 0.624688 -0.655013 -0.681245 -1.102277 4.875361 -7.968884 9.591438 -11.852673 1.833999 -1.510337 2.826146 -2.075798 2.204771 -1.256579 -0.621375 0.819219 -3.452103 4.615777 -6.290507 8.436796 -2.838403 3.821019 -5.842979 7.047440 -6.676835 7.169824 -0.833856 0.122384 -1.321878 -0.303905 -1.084493 -0.947308 z " fill="#000000" stroke-width="0.352778"/>
</svg>
